HIERARCHY
ROOT Hips
{
	OFFSET 0.000000 0.000000 0.000000
	CHANNELS 6 Xposition Yposition Zposition Xrotation Yrotation Zrotation
	JOINT LeftUpLeg_virtual
	{
		OFFSET 0.000000 0.000000 0.000000
		CHANNELS 3 Xrotation Yrotation Zrotation
		JOINT LeftUpLeg
		{
			OFFSET 15.427100 -6.655098 0.678600
			CHANNELS 3 Xrotation Yrotation Zrotation
			JOINT LeftLeg
			{
				OFFSET 4.081073 -39.591068 13.024000
				CHANNELS 3 Xrotation Yrotation Zrotation
				JOINT LeftFoot
				{
					OFFSET -4.081074 -37.707932 -15.979700
					CHANNELS 3 Xrotation Yrotation Zrotation
					JOINT LeftToeBase
					{
						OFFSET 5.346399 -15.068900 20.645000
						CHANNELS 3 Xrotation Yrotation Zrotation
						JOINT LeftToe_End
						{
							OFFSET 2.754700 0.931300 11.300900
							CHANNELS 3 Xrotation Yrotation Zrotation
							End Site
							{
								OFFSET 0 0 0
							}
						}
					}
				}
			}
		}
	}
	JOINT RightUpLeg_virtual
	{
		OFFSET 0.000000 0.000000 0.000000
		CHANNELS 3 Xrotation Yrotation Zrotation
		JOINT RightUpLeg
		{
			OFFSET -15.569500 -6.655098 0.678600
			CHANNELS 3 Xrotation Yrotation Zrotation
			JOINT RightLeg
			{
				OFFSET -4.081825 -39.591045 13.023800
				CHANNELS 3 Xrotation Yrotation Zrotation
				JOINT RightFoot
				{
					OFFSET 4.081824 -37.707954 -15.979600
					CHANNELS 3 Xrotation Yrotation Zrotation
					JOINT RightToeBase
					{
						OFFSET -5.346400 -15.068900 20.645000
						CHANNELS 3 Xrotation Yrotation Zrotation
						JOINT RightToe_End
						{
							OFFSET -2.754700 0.931300 11.300900
							CHANNELS 3 Xrotation Yrotation Zrotation
							End Site
							{
								OFFSET 0 0 0
							}
						}
					}
				}
			}
		}
	}
	JOINT Spine_virtual
	{
		OFFSET 0.000000 0.000000 0.000000
		CHANNELS 3 Xrotation Yrotation Zrotation
		JOINT Spine
		{
			OFFSET -0.279200 12.230698 -2.892100
			CHANNELS 3 Xrotation Yrotation Zrotation
			JOINT Spine1
			{
				OFFSET -0.232667 10.192268 -1.242267
				CHANNELS 3 Xrotation Yrotation Zrotation
				JOINT Spine1_split
				{
					OFFSET -0.232667 10.192268 -1.242267
					CHANNELS 3 Xrotation Yrotation Zrotation
					JOINT Spine2
					{
						OFFSET -0.232667 10.192268 -1.242267
						CHANNELS 3 Xrotation Yrotation Zrotation
						JOINT Neck_virtual
						{
							OFFSET 0.000000 0.000000 0.000000
							CHANNELS 3 Xrotation Yrotation Zrotation
							JOINT Neck
							{
								OFFSET -0.418800 17.814194 8.416900
								CHANNELS 3 Xrotation Yrotation Zrotation
								JOINT Head
								{
									OFFSET 0.000000 7.031097 3.806800
									CHANNELS 3 Xrotation Yrotation Zrotation
									JOINT HeadTop_End
									{
										OFFSET 0.000000 24.646606 12.978600
										CHANNELS 3 Xrotation Yrotation Zrotation
										End Site
										{
											OFFSET 0 0 0
										}
									}
								}
							}
						}
						JOINT LeftShoulder_virtual
						{
							OFFSET 0.000000 0.000000 0.000000
							CHANNELS 3 Xrotation Yrotation Zrotation
							JOINT LeftShoulder
							{
								OFFSET 8.476499 7.247704 -3.868750
								CHANNELS 3 Xrotation Yrotation Zrotation
								JOINT LeftShoulder_split
								{
									OFFSET 8.476499 7.247704 -3.868750
									CHANNELS 3 Xrotation Yrotation Zrotation
									JOINT LeftArm
									{
										OFFSET 9.308998 -2.777710 0.208600
										CHANNELS 3 Xrotation Yrotation Zrotation
										JOINT LeftForeArm
										{
											OFFSET 29.972298 0.000000 0.000000
											CHANNELS 3 Xrotation Yrotation Zrotation
											JOINT LeftHand
											{
												OFFSET 26.026505 0.000000 0.000000
												CHANNELS 3 Xrotation Yrotation Zrotation
												End Site
												{
													OFFSET 0 0 0
												}
											}
										}
									}
								}
							}
						}
						JOINT RightShoulder_virtual
						{
							OFFSET 0.000000 0.000000 0.000000
							CHANNELS 3 Xrotation Yrotation Zrotation
							JOINT RightShoulder
							{
								OFFSET -7.570500 7.247704 -3.868750
								CHANNELS 3 Xrotation Yrotation Zrotation
								JOINT RightShoulder_split
								{
									OFFSET -7.570500 7.247704 -3.868750
									CHANNELS 3 Xrotation Yrotation Zrotation
									JOINT RightArm
									{
										OFFSET -9.308998 -2.777710 0.208500
										CHANNELS 3 Xrotation Yrotation Zrotation
										JOINT RightForeArm
										{
											OFFSET -29.972300 0.000000 0.000000
											CHANNELS 3 Xrotation Yrotation Zrotation
											JOINT RightHand
											{
												OFFSET -26.026505 0.000000 0.000000
												CHANNELS 3 Xrotation Yrotation Zrotation
												End Site
												{
													OFFSET 0 0 0
												}
											}
										}
									}
								}
							}
						}
					}
				}
			}
		}
	}
}
MOTION
Frames: 5
Frame Time: 0.03333333
0.719468 76.323563 -2.320278 0.000000 0.000000 0.000000 -5.146543 -64.200500 -3.940193 -32.758936 7.307726 36.641960 42.387191 -10.435678 -11.075933 -8.660369 -2.484829 -8.705259 -0.543087 0.537808 0.333604 0.000000 0.000000 0.000000 -5.938990 -63.005039 -4.005432 -26.917340 -6.315960 -30.608205 46.243157 8.328976 -4.443096 -18.068968 0.142121 23.670579 3.709597 0.561363 0.720136 0.000000 0.000000 0.000000 -4.753173 -61.782483 -3.160434 10.007593 2.269245 -1.031739 7.579441 0.336044 -5.117124 0.512555 -1.973759 1.123183 0.000000 0.000000 0.000000 7.872780 0.727191 -4.901042 -25.453646 23.040566 11.492090 -3.507206 26.247756 -3.076142 0.000000 0.000000 0.000000 8.911226 0.456424 -4.643634 -5.673294 -9.941561 -1.490909 -2.266605 -1.197352 -2.284520 -18.045104 3.696223 -34.902554 4.916882 -49.407983 2.732726 0.000000 0.000000 0.000000 8.472396 0.404585 -4.943556 -4.059984 11.932056 2.042804 1.938219 1.092497 0.687098 -38.834570 -25.062935 32.343155 -157.150604 65.004297 157.648757 0.000000 0.000000 0.000000 
0.659263 76.286835 -2.340206 0.000000 0.000000 0.000000 -4.800888 -64.063206 -3.176976 -32.250254 7.096484 35.897681 41.688558 -10.115999 -11.101839 -8.412941 -2.249245 -8.905896 -0.234396 0.547796 0.192119 0.000000 0.000000 0.000000 -5.612221 -63.083723 -3.259276 -27.315141 -5.884546 -31.450859 46.583205 8.573273 -4.354071 -18.384392 0.432478 23.808018 3.720231 0.603659 0.721103 0.000000 0.000000 0.000000 -4.006783 -61.499392 -2.239580 9.885401 2.309198 -0.827676 8.069938 0.440006 -4.992595 0.474213 -1.916683 1.200889 0.000000 0.000000 0.000000 8.207276 0.862228 -4.832230 -23.468298 23.129321 11.890167 -2.720045 25.685944 -2.850631 0.000000 0.000000 0.000000 9.304176 0.509141 -4.542654 -5.800150 -10.519625 -2.216200 -2.138800 -0.993904 -2.327478 -16.562732 4.983944 -34.918287 5.271909 -49.740808 2.793582 0.000000 0.000000 0.000000 8.837995 0.522905 -4.753854 -4.130097 12.047059 2.702359 1.554387 0.990116 0.584413 -39.551290 -24.657120 30.973880 -157.360114 64.217992 158.118469 0.000000 0.000000 0.000000 
0.578141 76.447639 -2.320004 0.000000 0.000000 0.000000 -4.165190 -63.943302 -2.140955 -31.746391 6.818456 34.990762 40.715379 -9.832196 -10.968144 -7.945297 -2.126115 -9.371077 0.006500 0.555609 0.086333 0.000000 0.000000 0.000000 -5.083950 -63.104323 -2.307159 -27.542391 -5.628900 -32.167384 46.644598 8.679740 -4.156848 -18.580116 0.535113 23.900398 3.617425 0.628330 0.708393 0.000000 0.000000 0.000000 -3.173911 -61.158040 -1.230927 9.790341 2.292633 -0.739720 8.486240 0.505666 -4.872915 0.496787 -2.147279 1.255398 0.000000 0.000000 0.000000 8.571875 0.952162 -4.737393 -22.001494 23.250353 11.961567 -2.090861 24.922322 -2.829365 0.000000 0.000000 0.000000 9.659995 0.520927 -4.403345 -5.912575 -10.968941 -2.736113 -2.160973 -0.584250 -2.400857 -15.332258 5.718840 -35.031798 5.752756 -48.866158 2.988863 0.000000 0.000000 0.000000 9.090895 0.590290 -4.560575 -4.191075 11.751974 3.238355 1.035845 0.884723 0.684373 -40.085998 -23.504945 30.298320 -156.877028 64.269348 157.773340 0.000000 0.000000 0.000000 
0.509279 76.683533 -2.266613 0.000000 0.000000 0.000000 -3.515076 -63.777820 -1.142563 -31.394500 6.504204 34.066487 39.822066 -9.610265 -10.700409 -7.451209 -2.113787 -10.000129 0.051849 0.561043 0.068751 0.000000 0.000000 0.000000 -4.521359 -63.064585 -1.375171 -27.587271 -5.470603 -32.634644 46.644205 8.636096 -3.930683 -18.814608 0.417905 23.912480 3.476311 0.630820 0.693545 0.000000 0.000000 0.000000 -2.534093 -60.798260 -0.402333 9.779450 2.211810 -0.765788 8.821961 0.499468 -4.794821 0.616476 -2.519646 1.213330 0.000000 0.000000 0.000000 8.963143 0.965382 -4.673837 -21.157015 23.402614 11.807907 -1.563827 24.220085 -3.041583 0.000000 0.000000 0.000000 9.988694 0.461453 -4.280762 -5.990395 -11.289387 -3.035411 -2.238780 -0.094127 -2.580989 -14.644651 5.908653 -34.964421 6.052836 -47.110625 3.117884 0.000000 0.000000 0.000000 9.283568 0.566281 -4.422489 -4.231095 11.183648 3.570438 0.607901 0.800246 0.878340 -40.532713 -22.167794 30.320371 -156.578781 64.520842 157.488016 0.000000 0.000000 0.000000 
0.463349 76.872574 -2.173195 0.000000 0.000000 0.000000 -2.944311 -63.589082 -0.305184 -31.276372 6.223985 33.250754 39.285763 -9.391450 -10.390458 -7.100926 -2.165152 -10.583760 -0.116963 0.570102 0.145407 0.000000 0.000000 0.000000 -3.989521 -62.910195 -0.571436 -27.459205 -5.348528 -32.880008 46.654440 8.488899 -3.742800 -19.132895 0.133324 23.899044 3.308111 0.621668 0.681342 0.000000 0.000000 0.000000 -2.225266 -60.495996 0.136053 9.871637 2.072985 -0.887198 9.061432 0.415647 -4.788509 0.813278 -2.955256 1.160898 0.000000 0.000000 0.000000 9.353860 0.897851 -4.668908 -20.813359 23.569175 11.559042 -1.098168 23.730678 -3.427341 0.000000 0.000000 0.000000 10.293827 0.344609 -4.230425 -6.028204 -11.420391 -3.179676 -2.289350 0.302149 -2.724590 -14.458121 5.774573 -34.624845 5.961630 -45.060039 3.021438 0.000000 0.000000 0.000000 9.470961 0.454896 -4.394446 -4.258820 10.538104 3.691020 0.540514 0.849814 1.139081 -40.856826 -21.233252 30.972408 -157.020148 64.518076 157.817791 0.000000 0.000000 0.000000 
